<?xml version="1.0" encoding="utf-8"?>
<!-- Generator: Adobe Illustrator 12.0.0, SVG Export Plug-In . SVG Version: 6.00 Build 51448)  -->
<!DOCTYPE svg PUBLIC "-//W3C//DTD SVG 1.1//EN" "http://www.w3.org/Graphics/SVG/1.1/DTD/svg11.dtd" >
<svg  version="1.1" id="Layer_1" xmlns="http://www.w3.org/2000/svg" xmlns:xlink="http://www.w3.org/1999/xlink" width="557.972" height="260.987"
	 viewBox="0 0 557.972 260.987" overflow="visible" enable-background="new 0 0 557.972 260.987" xml:space="preserve">
<g>
	<path fill-rule="evenodd" clip-rule="evenodd" d="M522.181,54.864c-4.201-3.167-6.701-7.013-9.968-11.003
		c-4.44-5.427-11.1-9.321-17.101-12.75c-15.965-9.121-34.529-14.278-52.285-18.614C425.982,8.381,409.1,8.943,391.46,8.838
		c-12.605-0.074-25.368,0.378-37.818,0.652c-10.386,0.228-20.856-2.024-31.332-1.837c-18.702,0.335-37.656,4.749-56.208,3.375
		c-8.117-0.602-16.274-0.246-24.402-0.752c-10.485-0.655-21.354-2.919-31.837-2.533c-26.662,0.983-51.691,15.415-77.441,17.03
		c-19.93,1.25-37.971,14.093-56.15,20.791c-8.332,3.071-14.308,1.811-22.537,1.363c-11.179-0.608-9.562,6.069-1.392,10.159
		c-1.49,0.5-4.315,1.862-4.383,1.926c-5.367,0.539-9.65,1.597-15.044,1.006c-3.658-0.401-7.312-1.31-10.884,0.015
		C18.865,61.208,3.496,71.742,11.178,71.91c6.278,0.135,14.249,2.22,19.368,4.901c7.321,3.835,11.428,6.813,19.723,8.263
		c-5.404,2.889-8.779,4.062-14.481,5.271c-4.014,0.851-16.528,2.767-17.502,5.657c-9.412-3.922-14.378-4.238-13.297,7.523
		c1.163,12.654,5.658,13.735,17.207,15.548c-4.41,4.909-12.474,0.761-6.368,7.79c2.435,2.801,4.844,3.734,7.582,5.42
		c5.208,3.206,8.857,5.767,15.194,7.578c7.001,2.002,11.47,3.65,17.412,6.935c4.78,2.643,13.582,4.988,18.834,4.621
		c1.927-0.135,4.869-2.328,6.012-2.34c2.358-0.024,5.159,2.397,7.908,2.932c11.165,2.171,26.106,1.437,38.202,1.956
		c9.831,0.422,20.6,2.689,30.193,4.841c6.535,1.468,12.368,4.862,18.774,6.073c5.797,1.095,6.616-0.041,9.343,5.314
		c3.931,7.716,7.382,16.073,10.988,23.961c2.886,6.313-1.126,12.112,0.132,19.281c0.774,4.399,2.54,10.718-0.014,14.81
		c-3.271,5.235-22.066,14.959-7.523,19.398c4.632,1.414,6.533-0.821,10.514-2.223c3.068-1.077,7.162-0.667,8.735-3.996
		c0.556,4.309,2.282,7.194,6.812,5.598c5.045-1.778,3.447-4.86,1.511-8.56c2.966,0.703,7.775,0.192,9.386-2.933
		c1.731-3.352-1.005-5.255-1.035-8.678c2.41,4.379,8.753,3.358,11.786,0.059c3.007,5.521,10.811,0.8,11.283-3.851
		c0.115-1.122-1.501-2.495-1.538-3.819c-0.076-2.618,0.974-4.275,1.391-6.693c0.792-4.595-0.341-7.894,0.326-12.085
		c1.159-7.275,4.144-14.063,4.856-21.503c0.237-2.479-1.07-14.795,2.458-16.11c2.75-1.024,13.396,7.329,15.845,9.626
		c1.933,1.813,4.653,10.084,7.431,9.359c2.79-0.727,0.797-4.947,1.363-6.635c1.964-5.834,8.028-7.444,13.312-4.917
		c6.956,3.325,6.518,7.191,11.714,11.759c2.468,2.168,6.25,3.951,6.056-1.48c-0.209-5.842,10.331-4.026,14.14-3.008
		c3.579,0.96,4.119,6.466,7.08,5.88c2.406-0.478,1.762-4.668,3.499-4.695c3.409-0.053,12.034-1.929,14.892-0.28
		c1.962,1.131,0.658,2.652,2.31,3.82c4.889,3.453,2.693,1.482,5.421-1.215c2.939-2.91,1.644-4.003,7.71-4.103
		c3.839-0.063,9.866-1.106,13.495,0.164c1.838,0.644,3.106,2.39,3.642,2.637c3.304,1.526,5.027,3.964,6.188-3.377
		c2.565,2.668,7.8,1.96,11.104-0.355c-1.164,7.688,16.517,10.356,20.91,11.491c2.619,0.677,1.695,1.642,5.035,0.563
		c1.318-0.426,5.103-3.485,7.255-4.563c3.13-1.563,5.984-3.671,8.854-5.654c-2.068,6.661,1.803,12.614,1.658,19.487
		c-0.173,8.211-10.46,17.452-15.368,23.104c-2.715,3.124-18.143,14.336-14.604,20.315c1.185,1.998,8.715,3.786,10.93,3.169
		c-4.059,4.131-7.061,7.473-0.06,9.803c2.617,0.869,5.245,0.504,7.729-0.548c0.475-0.201,4.571,1.672,5.582,1.822
		c3.122,0.462,5.915-0.29,8.572-1.778c0.977-0.545,1.063-2.495,1.955-2.931c1.384-0.679,3.035-0.128,4.976-0.432
		c9.873-1.543,13.68-15.84,19.177-22.374c5.819-6.92,16.931-18.255,19.561-26.716c2.563-8.251-5.696-17.261-2.665-26.122
		c0.125,0.31,0.232,0.626,0.325,0.948c0.776-2.162,0.906-4.702,2.548-6.545c-0.317,0.039-0.757,0.433-1.037,0.592
		c2.895-8.027,11.124-14.307,15.782-21.43c5.258-8.035,10.333-17.258,13.313-26.404c4.775-14.653,7.814-34.827,1.913-49.608
		c4.059,4.147,9.808,6.112,15.545,5.805c2.4-0.128,16.307-4.176,16.764-6.012c1.244-5.023-12.251-4.163-14.601-4.769
		C533.919,65.52,526.57,60.056,522.181,54.864 M446.544,176.65C446.891,175.916,447.069,175.544,446.544,176.65 M360.542,175.88
		C361.883,174.343,360.515,175.913,360.542,175.88 M249.961,12.304c-2.811,0.074-5.701,0.25-8.468-0.148
		C244.319,12.202,247.138,12.135,249.961,12.304 M194.909,12.363C195.586,11.458,195.833,11.129,194.909,12.363 M136.864,28.12
		C135.792,28.47,136.656,28.188,136.864,28.12 M278.006,179.791C278.217,179.954,278.485,180.16,278.006,179.791 M246.083,200.67
		C246.115,199.416,246.11,199.588,246.083,200.67"/>
	<g>
		<path fill-rule="evenodd" clip-rule="evenodd" fill="#FFFFFF" d="M435.557,153.194c3.502,8.866,5.195,18.598,9.788,26.848
			c3.816,6.858,9.313,19.169,10.407,26.996c0.732,5.236-2.854,7.813-5.3,12.471c-1.91,3.639-3.064,8.352-6.102,11.371
			c-2.47,2.46-6.384,3.617-9.623,5.688c6.199-2.511,9.596-2.843,12.91-8.767c2.263-4.043,3.946-8.687,6.249-12.47
			c1.903-3.12,4.755-4.574,2.917-8.382c-3.759-7.801-6.796-16.226-9.551-24.434c0.112,0.403,0.27,0.541,0.475,0.413
			c-7.218-11.962-7.128-32.777-18.093-44.454c-5.232-5.57-13.457-5.687-20.348-4.295c-7.917,1.6-15.807,4.45-23.035,8.035
			c-4.548,2.257-12.397,4.763-15.255,9.114c13.576-6.695,28.26-16.675,44.067-16.675
			C427.839,134.653,431.059,142.441,435.557,153.194"/>
		<path fill-rule="evenodd" clip-rule="evenodd" fill="#FFFFFF" d="M353.701,164.211c1.29-0.493,2.502-1.182,3.703-1.836
			c-4.162,0.285-8.51,1.396-13.075,1.354c-10.689-0.098-21.208-2.698-31.85-2.333c-11.063,0.38-22.643-1.232-33.612,0.179
			c-6.321,0.813-13.87,5.213-19.813,2.488c3.796,4.686,16.857-0.839,22.298-1.243c7.975-0.596,15.776,0.372,23.692,0.192
			c8.233-0.189,16.006-0.712,24.137,1.021C336.57,165.608,346.385,166.523,353.701,164.211"/>
		<path fill-rule="evenodd" clip-rule="evenodd" fill="#FFFFFF" d="M51.78,85.222c4.502,7.6,17.129-2.768,21.573,0.607
			c3.104,2.356,8.229,10.865,8.604-0.074c-3.282,10.823-4.696-0.2-9.477-1.807c-2.315-0.778-7.249,2.377-10.009,2.74
			C58.873,87.161,55.152,86.531,51.78,85.222"/>
		<path fill-rule="evenodd" clip-rule="evenodd" fill="#FFFFFF" d="M71.355,49.71c-1.833,1.957-4.247,4.949-6.782,6.042
			c-4.062,1.75-9.222,0.17-13.416,1.896C59.291,57.755,67.741,58.129,71.355,49.71"/>
		<path fill-rule="evenodd" clip-rule="evenodd" fill="#FFFFFF" d="M52.549,90.345c-1.604,3.104,0.411,7.744,3.407,9.625
			C53.638,97.31,52.26,93.919,52.549,90.345"/>
		<path fill-rule="evenodd" clip-rule="evenodd" fill="#FFFFFF" d="M91.849,79.417c-0.243-2.446-0.915-4.852-1.954-7.078
			c1.211,6.891-0.593,16.297,2.575,23.456C91.891,90.482,90.497,84.68,91.849,79.417"/>
		<path fill-rule="evenodd" clip-rule="evenodd" fill="#FFFFFF" d="M94.069,82.615c-1.583,6.913,2.431,14.791,9.151,17.238
			C97.41,96.016,93.553,89.695,94.069,82.615"/>
		<path fill-rule="evenodd" clip-rule="evenodd" fill="#FFFFFF" d="M145.747,140.873c5.902,1.105,11.978,7.428,17.428,10.214
			c6.87,3.51,12.704,6.513,18.939,10.665c-4.253-6.653-11.277-8.035-18.51-11.579c-5.958-2.919-12.77-10.455-19.16-10.099
			c-3.605,0.2-14.912,2.866-17.147,5.434c-2.67,3.068-6.144,5.162-10.009,6.384c3.038,0.319,6.489-1.833,8.795-3.911
			C131.42,143.177,138.837,143.075,145.747,140.873"/>
		<path fill-rule="evenodd" clip-rule="evenodd" fill="#FFFFFF" d="M160.732,132.609c1.009,6.385,17.634,14.761,23.248,14.898
			C175.638,143.349,167.168,139.568,160.732,132.609"/>
		<path fill-rule="evenodd" clip-rule="evenodd" fill="#FFFFFF" d="M79.263,136.786c-3.241,4.226,0.167,11.126,4.886,12.972
			C80.038,146.957,78.342,141.567,79.263,136.786"/>
		<path fill-rule="evenodd" clip-rule="evenodd" fill="#FFFFFF" d="M34.277,116.824c3.023,0.487,6.07,1.531,8.41,3.554
			c-2.13-0.55-2.366-0.198-3.968,0.267c2.66-0.218,5.016,1.287,5.953,3.761c2.589-7.489-16.14-12.573-17.207-4.442
			c-2.25-0.659-18.886-13.475-16.791-3.553c-0.759-0.626-1.319-0.961-1.955-1.867c-0.109,2.093,1.318,2.531,2.932,2.311
			c0.26-0.036,0.121-2.9,2.932-3.05c1.733-0.093,3.573,1.442,4.783,2.473c1.539,1.312,5.922,4.935,8.041,4.724
			C29.621,120.78,30.029,116.576,34.277,116.824"/>
		<path fill-rule="evenodd" clip-rule="evenodd" fill="#FFFFFF" d="M237.524,154.822c-2.266,11.451-6.623,23.631-8.146,35.749
			c-1.018,8.11,0.521,15.74,0.266,23.902c-0.166,5.319-2.392,10.268-2.368,15.577c4.541-12.99,1.145-25.068,2.813-38.266
			c0.719-5.691,1.404-10.843,3.08-16.348C234.66,170.542,239.811,158.606,237.524,154.822"/>
	</g>
</g>
</svg>
